<?xml version="1.0" encoding="UTF-8" standalone="no"?><svg xmlns="http://www.w3.org/2000/svg" xmlns:xlink="http://www.w3.org/1999/xlink" contentScriptType="application/ecmascript" contentStyleType="text/css" height="622px" preserveAspectRatio="none" style="width:247px;height:622px;" version="1.1" viewBox="0 0 247 622" width="247px" zoomAndPan="magnify"><defs><filter height="300%" id="fdv0qwf" width="300%" x="-1" y="-1"><feGaussianBlur result="blurOut" stdDeviation="2.0"/><feColorMatrix in="blurOut" result="blurOut2" type="matrix" values="0 0 0 0 0 0 0 0 0 0 0 0 0 0 0 0 0 0 .4 0"/><feOffset dx="4.0" dy="4.0" in="blurOut2" result="blurOut3"/><feBlend in="SourceGraphic" in2="blurOut3" mode="normal"/></filter></defs><g><!--cluster model--><polygon fill="#FFFFFF" filter="url(#fdv0qwf)" points="22,24,71,24,78,47.6094,240,47.6094,240,615,22,615,22,24" style="stroke: #000000; stroke-width: 2.0;"/><line style="stroke: #000000; stroke-width: 2.0;" x1="22" x2="78" y1="47.6094" y2="47.6094"/><text fill="#000000" font-family="sans-serif" font-size="14" font-weight="bold" lengthAdjust="spacingAndGlyphs" textLength="43" x="26" y="40.5332">model</text><!--class BaseEntity--><rect fill="#FEFECE" filter="url(#fdv0qwf)" height="117.1797" style="stroke: #A80036; stroke-width: 1.5;" width="90" x="125" y="60"/><ellipse cx="140" cy="76" fill="#ADD1B2" rx="11" ry="11" style="stroke: #A80036; stroke-width: 1.0;"/><path d="M142.7656,71.875 Q142.9219,71.6563 143.1094,71.5469 Q143.2969,71.4375 143.5156,71.4375 Q143.8906,71.4375 144.125,71.6953 Q144.3594,71.9531 144.3594,72.5625 L144.3594,74.0156 Q144.3594,74.625 144.125,74.8906 Q143.8906,75.1563 143.5156,75.1563 Q143.1719,75.1563 142.9688,74.9531 Q142.7656,74.7656 142.6563,74.25 Q142.6094,73.8906 142.4219,73.7031 Q142.0938,73.3281 141.4844,73.1094 Q140.875,72.8906 140.25,72.8906 Q139.4844,72.8906 138.8516,73.2188 Q138.2188,73.5469 137.7266,74.2969 Q137.2344,75.0469 137.2344,76.0781 L137.2344,77.1719 Q137.2344,78.4063 138.125,79.2266 Q139.0156,80.0469 140.6094,80.0469 Q141.5469,80.0469 142.2031,79.7969 Q142.5938,79.6406 143.0156,79.2031 Q143.2813,78.9375 143.4297,78.8594 Q143.5781,78.7813 143.7813,78.7813 Q144.1094,78.7813 144.3672,79.0391 Q144.625,79.2969 144.625,79.6406 Q144.625,79.9844 144.2813,80.3906 Q143.7813,80.9688 142.9844,81.2969 Q141.9063,81.75 140.6094,81.75 Q139.0938,81.75 137.8906,81.125 Q136.9063,80.625 136.2188,79.5547 Q135.5313,78.4844 135.5313,77.2031 L135.5313,76.0469 Q135.5313,74.7188 136.1484,73.5703 Q136.7656,72.4219 137.8594,71.8047 Q138.9531,71.1875 140.1875,71.1875 Q140.9219,71.1875 141.5703,71.3516 Q142.2188,71.5156 142.7656,71.875 Z "/><text fill="#000000" font-family="sans-serif" font-size="12" lengthAdjust="spacingAndGlyphs" textLength="58" x="154" y="80.9102">BaseEntity</text><line style="stroke: #A80036; stroke-width: 1.5;" x1="126" x2="214" y1="92" y2="92"/><text fill="#000000" font-family="sans-serif" font-size="11" lengthAdjust="spacingAndGlyphs" textLength="8" x="131" y="107.4189">id</text><text fill="#000000" font-family="sans-serif" font-size="11" lengthAdjust="spacingAndGlyphs" textLength="35" x="131" y="121.2549">creator</text><text fill="#000000" font-family="sans-serif" font-size="11" lengthAdjust="spacingAndGlyphs" textLength="31" x="131" y="135.0908">udator</text><text fill="#000000" font-family="sans-serif" font-size="11" lengthAdjust="spacingAndGlyphs" textLength="54" x="131" y="148.9268">updated_at</text><text fill="#000000" font-family="sans-serif" font-size="11" lengthAdjust="spacingAndGlyphs" textLength="52" x="131" y="162.7627">created_at</text><line style="stroke: #A80036; stroke-width: 1.5;" x1="126" x2="214" y1="169.1797" y2="169.1797"/><!--class UserEntity--><rect fill="#FEFECE" filter="url(#fdv0qwf)" height="89.5078" style="stroke: #A80036; stroke-width: 1.5;" width="88" x="46" y="237"/><ellipse cx="61" cy="253" fill="#ADD1B2" rx="11" ry="11" style="stroke: #A80036; stroke-width: 1.0;"/><path d="M63.7656,248.875 Q63.9219,248.6563 64.1094,248.5469 Q64.2969,248.4375 64.5156,248.4375 Q64.8906,248.4375 65.125,248.6953 Q65.3594,248.9531 65.3594,249.5625 L65.3594,251.0156 Q65.3594,251.625 65.125,251.8906 Q64.8906,252.1563 64.5156,252.1563 Q64.1719,252.1563 63.9688,251.9531 Q63.7656,251.7656 63.6563,251.25 Q63.6094,250.8906 63.4219,250.7031 Q63.0938,250.3281 62.4844,250.1094 Q61.875,249.8906 61.25,249.8906 Q60.4844,249.8906 59.8516,250.2188 Q59.2188,250.5469 58.7266,251.2969 Q58.2344,252.0469 58.2344,253.0781 L58.2344,254.1719 Q58.2344,255.4063 59.125,256.2266 Q60.0156,257.0469 61.6094,257.0469 Q62.5469,257.0469 63.2031,256.7969 Q63.5938,256.6406 64.0156,256.2031 Q64.2813,255.9375 64.4297,255.8594 Q64.5781,255.7813 64.7813,255.7813 Q65.1094,255.7813 65.3672,256.0391 Q65.625,256.2969 65.625,256.6406 Q65.625,256.9844 65.2813,257.3906 Q64.7813,257.9688 63.9844,258.2969 Q62.9063,258.75 61.6094,258.75 Q60.0938,258.75 58.8906,258.125 Q57.9063,257.625 57.2188,256.5547 Q56.5313,255.4844 56.5313,254.2031 L56.5313,253.0469 Q56.5313,251.7188 57.1484,250.5703 Q57.7656,249.4219 58.8594,248.8047 Q59.9531,248.1875 61.1875,248.1875 Q61.9219,248.1875 62.5703,248.3516 Q63.2188,248.5156 63.7656,248.875 Z "/><text fill="#000000" font-family="sans-serif" font-size="12" lengthAdjust="spacingAndGlyphs" textLength="56" x="75" y="257.9102">UserEntity</text><line style="stroke: #A80036; stroke-width: 1.5;" x1="47" x2="133" y1="269" y2="269"/><text fill="#000000" font-family="sans-serif" font-size="11" lengthAdjust="spacingAndGlyphs" textLength="48" x="52" y="284.4189">username</text><text fill="#000000" font-family="sans-serif" font-size="11" lengthAdjust="spacingAndGlyphs" textLength="50" x="52" y="298.2549">password</text><text fill="#000000" font-family="sans-serif" font-size="11" lengthAdjust="spacingAndGlyphs" textLength="52" x="52" y="312.0908">admin_flag</text><line style="stroke: #A80036; stroke-width: 1.5;" x1="47" x2="133" y1="318.5078" y2="318.5078"/><!--class MessageEntity--><rect fill="#FEFECE" filter="url(#fdv0qwf)" height="75.6719" style="stroke: #A80036; stroke-width: 1.5;" width="112" x="75" y="387"/><ellipse cx="90" cy="403" fill="#ADD1B2" rx="11" ry="11" style="stroke: #A80036; stroke-width: 1.0;"/><path d="M92.7656,398.875 Q92.9219,398.6563 93.1094,398.5469 Q93.2969,398.4375 93.5156,398.4375 Q93.8906,398.4375 94.125,398.6953 Q94.3594,398.9531 94.3594,399.5625 L94.3594,401.0156 Q94.3594,401.625 94.125,401.8906 Q93.8906,402.1563 93.5156,402.1563 Q93.1719,402.1563 92.9688,401.9531 Q92.7656,401.7656 92.6563,401.25 Q92.6094,400.8906 92.4219,400.7031 Q92.0938,400.3281 91.4844,400.1094 Q90.875,399.8906 90.25,399.8906 Q89.4844,399.8906 88.8516,400.2188 Q88.2188,400.5469 87.7266,401.2969 Q87.2344,402.0469 87.2344,403.0781 L87.2344,404.1719 Q87.2344,405.4063 88.125,406.2266 Q89.0156,407.0469 90.6094,407.0469 Q91.5469,407.0469 92.2031,406.7969 Q92.5938,406.6406 93.0156,406.2031 Q93.2813,405.9375 93.4297,405.8594 Q93.5781,405.7813 93.7813,405.7813 Q94.1094,405.7813 94.3672,406.0391 Q94.625,406.2969 94.625,406.6406 Q94.625,406.9844 94.2813,407.3906 Q93.7813,407.9688 92.9844,408.2969 Q91.9063,408.75 90.6094,408.75 Q89.0938,408.75 87.8906,408.125 Q86.9063,407.625 86.2188,406.5547 Q85.5313,405.4844 85.5313,404.2031 L85.5313,403.0469 Q85.5313,401.7188 86.1484,400.5703 Q86.7656,399.4219 87.8594,398.8047 Q88.9531,398.1875 90.1875,398.1875 Q90.9219,398.1875 91.5703,398.3516 Q92.2188,398.5156 92.7656,398.875 Z "/><text fill="#000000" font-family="sans-serif" font-size="12" lengthAdjust="spacingAndGlyphs" textLength="80" x="104" y="407.9102">MessageEntity</text><line style="stroke: #A80036; stroke-width: 1.5;" x1="76" x2="186" y1="419" y2="419"/><text fill="#000000" font-family="sans-serif" font-size="11" lengthAdjust="spacingAndGlyphs" textLength="44" x="81" y="434.4189">message</text><text fill="#000000" font-family="sans-serif" font-size="11" lengthAdjust="spacingAndGlyphs" textLength="64" x="81" y="448.2549">from_user_id</text><line style="stroke: #A80036; stroke-width: 1.5;" x1="76" x2="186" y1="454.6719" y2="454.6719"/><!--class MessageUserEntity--><rect fill="#FEFECE" filter="url(#fdv0qwf)" height="75.6719" style="stroke: #A80036; stroke-width: 1.5;" width="139" x="61.5" y="523"/><ellipse cx="76.5" cy="539" fill="#ADD1B2" rx="11" ry="11" style="stroke: #A80036; stroke-width: 1.0;"/><path d="M79.2656,534.875 Q79.4219,534.6563 79.6094,534.5469 Q79.7969,534.4375 80.0156,534.4375 Q80.3906,534.4375 80.625,534.6953 Q80.8594,534.9531 80.8594,535.5625 L80.8594,537.0156 Q80.8594,537.625 80.625,537.8906 Q80.3906,538.1563 80.0156,538.1563 Q79.6719,538.1563 79.4688,537.9531 Q79.2656,537.7656 79.1563,537.25 Q79.1094,536.8906 78.9219,536.7031 Q78.5938,536.3281 77.9844,536.1094 Q77.375,535.8906 76.75,535.8906 Q75.9844,535.8906 75.3516,536.2188 Q74.7188,536.5469 74.2266,537.2969 Q73.7344,538.0469 73.7344,539.0781 L73.7344,540.1719 Q73.7344,541.4063 74.625,542.2266 Q75.5156,543.0469 77.1094,543.0469 Q78.0469,543.0469 78.7031,542.7969 Q79.0938,542.6406 79.5156,542.2031 Q79.7813,541.9375 79.9297,541.8594 Q80.0781,541.7813 80.2813,541.7813 Q80.6094,541.7813 80.8672,542.0391 Q81.125,542.2969 81.125,542.6406 Q81.125,542.9844 80.7813,543.3906 Q80.2813,543.9688 79.4844,544.2969 Q78.4063,544.75 77.1094,544.75 Q75.5938,544.75 74.3906,544.125 Q73.4063,543.625 72.7188,542.5547 Q72.0313,541.4844 72.0313,540.2031 L72.0313,539.0469 Q72.0313,537.7188 72.6484,536.5703 Q73.2656,535.4219 74.3594,534.8047 Q75.4531,534.1875 76.6875,534.1875 Q77.4219,534.1875 78.0703,534.3516 Q78.7188,534.5156 79.2656,534.875 Z "/><text fill="#000000" font-family="sans-serif" font-size="12" lengthAdjust="spacingAndGlyphs" textLength="107" x="90.5" y="543.9102">MessageUserEntity</text><line style="stroke: #A80036; stroke-width: 1.5;" x1="62.5" x2="199.5" y1="555" y2="555"/><text fill="#000000" font-family="sans-serif" font-size="11" lengthAdjust="spacingAndGlyphs" textLength="58" x="67.5" y="570.4189">message_id</text><text fill="#000000" font-family="sans-serif" font-size="11" lengthAdjust="spacingAndGlyphs" textLength="57" x="67.5" y="584.2549">dst_user_id</text><line style="stroke: #A80036; stroke-width: 1.5;" x1="62.5" x2="199.5" y1="590.6719" y2="590.6719"/><path d="M132.252,195.703 C125.24,209.859 118.135,224.202 111.804,236.984 " fill="none" style="stroke: #A80036; stroke-width: 1.0;"/><polygon fill="none" points="126.194,192.164,141.344,177.349,138.739,198.378,126.194,192.164" style="stroke: #A80036; stroke-width: 1.0;"/><path d="M164.936,197.495 C161.876,236.511 157.324,284.384 151,327 C148.047,346.9 143.616,368.871 139.674,386.864 " fill="none" style="stroke: #A80036; stroke-width: 1.0;"/><polygon fill="none" points="157.967,196.82,166.443,177.399,171.928,197.867,157.967,196.82" style="stroke: #A80036; stroke-width: 1.0;"/><path d="M195.912,196.528 C215.624,267.538 234.754,374.942 205,463 C197.542,485.073 182.83,506.087 168.476,522.875 " fill="none" style="stroke: #A80036; stroke-width: 1.0;"/><polygon fill="none" points="189.115,198.225,190.24,177.065,202.556,194.308,189.115,198.225" style="stroke: #A80036; stroke-width: 1.0;"/><path d="M106.601,340.093 C111.154,355.751 115.974,372.325 120.116,386.57 " fill="none" style="stroke: #A80036; stroke-width: 1.0;"/><polygon fill="#FFFFFF" points="102.8602,327.226,100.6947,334.1043,106.211,338.7487,108.3765,331.8704,102.8602,327.226" style="stroke: #A80036; stroke-width: 1.0;"/><text fill="#000000" font-family="sans-serif" font-size="13" lengthAdjust="spacingAndGlyphs" textLength="7" x="97.118" y="347.9301">1</text><text fill="#000000" font-family="sans-serif" font-size="13" lengthAdjust="spacingAndGlyphs" textLength="20" x="96.5268" y="376.1434">0..*</text><path d="M131,476.458 C131,491.866 131,508.52 131,522.874 " fill="none" style="stroke: #A80036; stroke-width: 1.0;"/><polygon fill="#FFFFFF" points="131,463.326,127,469.326,131,475.326,135,469.326,131,463.326" style="stroke: #A80036; stroke-width: 1.0;"/><text fill="#000000" font-family="sans-serif" font-size="13" lengthAdjust="spacingAndGlyphs" textLength="7" x="123.4422" y="484.2585">1</text><text fill="#000000" font-family="sans-serif" font-size="13" lengthAdjust="spacingAndGlyphs" textLength="20" x="109.2188" y="512.2135">0..*</text><path d="M65.3002,339.412 C53.0137,375.43 43.3991,422.748 57,463 C64.4584,485.073 79.17,506.087 93.5245,522.875 " fill="none" style="stroke: #A80036; stroke-width: 1.0;"/><polygon fill="#FFFFFF" points="69.7238,327.174,63.9221,331.4566,65.6439,338.4591,71.4456,334.1765,69.7238,327.174" style="stroke: #A80036; stroke-width: 1.0;"/><text fill="#000000" font-family="sans-serif" font-size="13" lengthAdjust="spacingAndGlyphs" textLength="7" x="59.5289" y="347.8711">1</text><text fill="#000000" font-family="sans-serif" font-size="13" lengthAdjust="spacingAndGlyphs" textLength="20" x="65.0679" y="512.2146">0..*</text></g></svg>