<?xml version="1.0" encoding="UTF-8" standalone="no"?><svg xmlns="http://www.w3.org/2000/svg" xmlns:xlink="http://www.w3.org/1999/xlink" contentScriptType="application/ecmascript" contentStyleType="text/css" height="817px" preserveAspectRatio="none" style="width:1026px;height:817px;" version="1.1" viewBox="0 0 1026 817" width="1026px" zoomAndPan="magnify"><defs><filter height="300%" id="fnle5e9" width="300%" x="-1" y="-1"><feGaussianBlur result="blurOut" stdDeviation="2.0"/><feColorMatrix in="blurOut" result="blurOut2" type="matrix" values="0 0 0 0 0 0 0 0 0 0 0 0 0 0 0 0 0 0 .4 0"/><feOffset dx="4.0" dy="4.0" in="blurOut2" result="blurOut3"/><feBlend in="SourceGraphic" in2="blurOut3" mode="normal"/></filter></defs><g><text fill="#000000" font-family="sans-serif" font-size="18" lengthAdjust="spacingAndGlyphs" textLength="180" x="436.5" y="18.6855">ユースケースサンプル</text><!--cluster web interface--><polygon fill="#FFFFFF" filter="url(#fnle5e9)" points="106,267.6406,208,267.6406,215,291.25,385,291.25,385,810.6406,106,810.6406,106,267.6406" style="stroke: #000000; stroke-width: 2.0;"/><line style="stroke: #000000; stroke-width: 2.0;" x1="106" x2="215" y1="291.25" y2="291.25"/><text fill="#000000" font-family="sans-serif" font-size="14" font-weight="bold" lengthAdjust="spacingAndGlyphs" textLength="96" x="110" y="284.1738">web interface</text><!--cluster local application--><polygon fill="#FFFFFF" filter="url(#fnle5e9)" points="503,46.6406,623,46.6406,630,70.25,1019,70.25,1019,529.6406,503,529.6406,503,46.6406" style="stroke: #000000; stroke-width: 2.0;"/><line style="stroke: #000000; stroke-width: 2.0;" x1="503" x2="630" y1="70.25" y2="70.25"/><text fill="#000000" font-family="sans-serif" font-size="14" font-weight="bold" lengthAdjust="spacingAndGlyphs" textLength="114" x="507" y="63.1738">local application</text><ellipse cx="245.7325" cy="320.8871" fill="#FEFECE" filter="url(#fnle5e9)" rx="74.2325" ry="17.2465" style="stroke: #A80036; stroke-width: 1.5;"/><text fill="#000000" font-family="sans-serif" font-size="14" lengthAdjust="spacingAndGlyphs" textLength="112" x="189.7325" y="326.1918">自アカウント登録</text><ellipse cx="245.598" cy="712.5923" fill="#FEFECE" filter="url(#fnle5e9)" rx="42.598" ry="15.4517" style="stroke: #A80036; stroke-width: 1.5;"/><text fill="#000000" font-family="sans-serif" font-size="14" lengthAdjust="spacingAndGlyphs" textLength="56" x="217.598" y="717.897">ログイン</text><ellipse cx="245.5894" cy="395.8585" fill="#FEFECE" filter="url(#fnle5e9)" rx="104.0894" ry="23.2179" style="stroke: #A80036; stroke-width: 1.5;"/><text fill="#000000" font-family="sans-serif" font-size="14" lengthAdjust="spacingAndGlyphs" textLength="182" x="154.5894" y="401.1632">自アカウントパスワード変更</text><ellipse cx="245.7325" cy="470.8871" fill="#FEFECE" filter="url(#fnle5e9)" rx="74.2325" ry="17.2465" style="stroke: #A80036; stroke-width: 1.5;"/><text fill="#000000" font-family="sans-serif" font-size="14" lengthAdjust="spacingAndGlyphs" textLength="112" x="189.7325" y="476.1918">自アカウント削除</text><ellipse cx="245.434" cy="547.6274" fill="#FEFECE" filter="url(#fnle5e9)" rx="110.434" ry="24.4868" style="stroke: #A80036; stroke-width: 1.5;"/><text fill="#000000" font-family="sans-serif" font-size="14" lengthAdjust="spacingAndGlyphs" textLength="196" x="147.434" y="552.9321">他アカウントへメッセージ送信</text><ellipse cx="245.3414" cy="634.7089" fill="#FEFECE" filter="url(#fnle5e9)" rx="123.3414" ry="27.0683" style="stroke: #A80036; stroke-width: 1.5;"/><text fill="#000000" font-family="sans-serif" font-size="14" lengthAdjust="spacingAndGlyphs" textLength="224" x="133.3414" y="640.0136">他アカウントからのメッセージ受信</text><ellipse cx="245.4975" cy="778.5923" fill="#FEFECE" filter="url(#fnle5e9)" rx="52.4975" ry="15.4517" style="stroke: #A80036; stroke-width: 1.5;"/><text fill="#000000" font-family="sans-serif" font-size="14" lengthAdjust="spacingAndGlyphs" textLength="70" x="210.4975" y="783.897">ログアウト</text><ellipse cx="629.4975" cy="497.5923" fill="#FEFECE" filter="url(#fnle5e9)" rx="52.4975" ry="15.4517" style="stroke: #A80036; stroke-width: 1.5;"/><text fill="#000000" font-family="sans-serif" font-size="14" lengthAdjust="spacingAndGlyphs" textLength="70" x="594.4975" y="502.897">管理者認証</text><ellipse cx="629.6965" cy="179.8799" fill="#FEFECE" filter="url(#fnle5e9)" rx="91.6965" ry="20.7393" style="stroke: #A80036; stroke-width: 1.5;"/><text fill="#000000" font-family="sans-serif" font-size="14" lengthAdjust="spacingAndGlyphs" textLength="154" x="552.6965" y="185.1846">ユーザアカウントの作成</text><ellipse cx="629.6965" cy="103.8799" fill="#FEFECE" filter="url(#fnle5e9)" rx="91.6965" ry="20.7393" style="stroke: #A80036; stroke-width: 1.5;"/><text fill="#000000" font-family="sans-serif" font-size="14" lengthAdjust="spacingAndGlyphs" textLength="154" x="552.6965" y="109.1846">ユーザアカウントの操作</text><polygon fill="#FBFB77" filter="url(#fnle5e9)" points="800,90.6406,800,116.9922,1003,116.9922,1003,100.6406,993,90.6406,800,90.6406" style="stroke: #A80036; stroke-width: 1.0;"/><polygon fill="#FBFB77" points="800,90.6406,800,99.6406,721.157,103.6406,800,107.6406,800,116.9922,1003,116.9922,1003,100.6406,993,90.6406,800,90.6406" style="stroke: #A80036; stroke-width: 1.0;"/><line style="stroke: #A80036; stroke-width: 1.0;" x1="993" x2="993" y1="90.6406" y2="100.6406"/><line style="stroke: #A80036; stroke-width: 1.0;" x1="1003" x2="993" y1="100.6406" y2="100.6406"/><text fill="#000000" font-family="sans-serif" font-size="13" lengthAdjust="spacingAndGlyphs" textLength="182" x="806" y="109.1357">管理者フラグの操作ができる。</text><ellipse cx="629.5894" cy="258.8585" fill="#FEFECE" filter="url(#fnle5e9)" rx="104.0894" ry="23.2179" style="stroke: #A80036; stroke-width: 1.5;"/><text fill="#000000" font-family="sans-serif" font-size="14" lengthAdjust="spacingAndGlyphs" textLength="182" x="538.5894" y="264.1632">ユーザアカウントの使用停止</text><ellipse cx="629.5894" cy="339.8585" fill="#FEFECE" filter="url(#fnle5e9)" rx="104.0894" ry="23.2179" style="stroke: #A80036; stroke-width: 1.5;"/><text fill="#000000" font-family="sans-serif" font-size="14" lengthAdjust="spacingAndGlyphs" textLength="182" x="538.5894" y="345.1632">ユーザアカウントの使用再開</text><ellipse cx="629.434" cy="422.6274" fill="#FEFECE" filter="url(#fnle5e9)" rx="110.434" ry="24.4868" style="stroke: #A80036; stroke-width: 1.5;"/><text fill="#000000" font-family="sans-serif" font-size="14" lengthAdjust="spacingAndGlyphs" textLength="196" x="531.434" y="427.9321">ユーザユーザアカウントの削除</text><!--entity user--><ellipse cx="34" cy="515.1406" fill="#FEFECE" filter="url(#fnle5e9)" rx="8" ry="8" style="stroke: #A80036; stroke-width: 2.0;"/><path d="M34,523.1406 L34,550.1406 M21,531.1406 L47,531.1406 M34,550.1406 L21,565.1406 M34,550.1406 L47,565.1406 " fill="#FEFECE" filter="url(#fnle5e9)" style="stroke: #A80036; stroke-width: 2.0;"/><text fill="#000000" font-family="sans-serif" font-size="14" lengthAdjust="spacingAndGlyphs" textLength="56" x="6" y="586.6738">ユーザー</text><!--entity admin--><ellipse cx="901.5" cy="581.1406" fill="#FEFECE" filter="url(#fnle5e9)" rx="8" ry="8" style="stroke: #A80036; stroke-width: 2.0;"/><path d="M901.5,589.1406 L901.5,616.1406 M888.5,597.1406 L914.5,597.1406 M901.5,616.1406 L888.5,631.1406 M901.5,616.1406 L914.5,631.1406 " fill="#FEFECE" filter="url(#fnle5e9)" style="stroke: #A80036; stroke-width: 2.0;"/><text fill="#000000" font-family="sans-serif" font-size="14" lengthAdjust="spacingAndGlyphs" textLength="42" x="880.5" y="652.6738">管理者</text><!--entity DB--><ellipse cx="444" cy="390.1406" fill="#FEFECE" filter="url(#fnle5e9)" rx="8" ry="8" style="stroke: #A80036; stroke-width: 2.0;"/><path d="M444,398.1406 L444,425.1406 M431,406.1406 L457,406.1406 M444,425.1406 L431,440.1406 M444,425.1406 L457,440.1406 " fill="#FEFECE" filter="url(#fnle5e9)" style="stroke: #A80036; stroke-width: 2.0;"/><text fill="#000000" font-family="sans-serif" font-size="14" lengthAdjust="spacingAndGlyphs" textLength="19" x="434.5" y="461.6738">DB</text><path d="M37.1299,505.0996 C41.6802,461.0826 55.6376,393.4506 98,354.6406 C118.022,336.2976 145.955,327.2466 172.066,322.9656 " fill="none" style="stroke: #A80036; stroke-width: 1.0;"/><path d="M44.8712,590.4136 C53.8607,619.8006 70.1138,657.3876 98,679.6406 C127.65,703.3016 170.921,710.7266 202.751,712.7286 " fill="none" style="stroke: #A80036; stroke-width: 1.0;"/><path d="M49.4948,505.0896 C59.6113,481.4236 75.3963,453.2736 98,435.6406 C114.942,422.4246 135.945,413.5686 156.706,407.6376 " fill="none" style="stroke: #A80036; stroke-width: 1.0;"/><path d="M62.0024,526.5836 C72.7218,519.0626 85.4689,511.1056 98,505.6406 C125.085,493.8276 156.803,485.6246 183.787,480.1446 " fill="none" style="stroke: #A80036; stroke-width: 1.0;"/><path d="M62.3885,547.6406 C81.3546,547.6406 107.966,547.6406 135,547.6406 " fill="none" style="stroke: #A80036; stroke-width: 1.0;"/><path d="M62.1926,568.2796 C72.9354,575.7496 85.6487,583.7806 98,589.6406 C118.553,599.3926 141.718,607.6496 163.459,614.3226 " fill="none" style="stroke: #A80036; stroke-width: 1.0;"/><path d="M36.6678,590.4846 C40.806,635.6426 54.3982,705.6556 98,745.6406 C123.46,768.9883 161.81,777.0078 192.887,779.3116 " fill="none" style="stroke: #A80036; stroke-width: 1.0;"/><path d="M284.969,706.8176 C407.908,688.2076 788.596,630.5806 880.419,616.6806 " fill="none" style="stroke: #A80036; stroke-width: 1.0;"/><path d="M296.719,782.3466 C386.885,777.0619 581.591,747.1939 740,698.6406 C792.081,682.6776 850.272,655.5446 880.232,634.9316 " fill="none" style="stroke: #A80036; stroke-width: 1.0;"/><path d="M276.792,766.1847 C354.833,746.8169 568.651,716.1596 740,663.6406 C792.081,647.6776 850.272,620.5446 880.232,612.0976 " fill="none" style="stroke: #A80036; stroke-width: 1.0;"/><path d="M662.783,509.8046 C684.686,518.1836 714.234,529.7306 740,540.6406 C791.021,562.2436 850.128,589.7906 880.382,604.0776 " fill="none" style="stroke: #A80036; stroke-width: 1.0;"/><path d="M701.652,192.3206 C716.095,197.9236 729.926,206.0006 740,217.6406 C832.405,324.4156 728.336,407.9696 800,529.6406 C819.504,562.7536 857.055,588.7556 880.326,602.6036 " fill="none" style="stroke: #A80036; stroke-width: 1.0;"/><path d="M702.251,116.1616 C716.576,121.7746 730.205,129.8956 740,141.6406 C851.756,275.6506 714.206,377.6946 800,529.6406 C818.895,563.1046 856.641,588.9936 880.115,602.7246 " fill="none" style="stroke: #A80036; stroke-width: 1.0;"/><path d="M704.55,274.5726 C717.793,280.2996 730.407,288.0786 740,298.6406 C811.316,377.1626 743.264,440.0156 800,529.6406 C820.434,561.9196 857.33,588.0086 880.282,602.1296 " fill="none" style="stroke: #A80036; stroke-width: 1.0;"/><path d="M701.254,356.3186 C715.378,362.1926 729.176,370.0786 740,380.6406 C791.096,430.4976 758.016,471.9016 800,529.6406 C822.2,560.1706 857.866,586.4266 880.201,601.1146 " fill="none" style="stroke: #A80036; stroke-width: 1.0;"/><path d="M696.346,442.2786 C711.359,448.2536 726.771,455.6706 740,464.6406 C772.541,486.7036 771.524,502.5326 800,529.6406 C826.517,554.8836 859.431,581.5996 880.207,597.9516 " fill="none" style="stroke: #A80036; stroke-width: 1.0;"/><path d="M347.179,557.4416 C446.924,567.1986 604.033,582.6896 740,596.6406 C790.592,601.8316 850.123,608.2066 880.487,611.4786 " fill="none" style="stroke: #A80036; stroke-width: 1.0;"/><path d="M367.98,630.7396 C529.776,625.5446 804.462,616.7246 880.483,614.2836 " fill="none" style="stroke: #A80036; stroke-width: 1.0;"/><path d="M315.383,326.4336 C341.345,331.1316 370.104,339.5606 393,354.6406 C406.634,363.6196 417.87,377.6616 426.214,390.6596 " fill="none" style="stroke: #A80036; stroke-width: 1.0;"/><polygon fill="#A80036" points="428.932,395.0186,427.5664,385.2649,426.2874,390.7753,420.777,389.4963,428.932,395.0186" style="stroke: #A80036; stroke-width: 1.0;"/><path d="M334.118,407.6796 C367.706,412.2946 402.971,417.1406 423.963,420.0246 " fill="none" style="stroke: #A80036; stroke-width: 1.0;"/><polygon fill="#A80036" points="428.983,420.7146,420.6122,415.5253,424.0297,420.0331,419.5218,423.4506,428.983,420.7146" style="stroke: #A80036; stroke-width: 1.0;"/><path d="M287.703,714.7706 C320.75,714.1166 365.938,707.5096 393,679.6406 C421.354,650.4406 434.506,536.3266 439.85,470.3906 " fill="none" style="stroke: #A80036; stroke-width: 1.0;"/><polygon fill="#A80036" points="440.252,465.3386,435.5498,473.9925,439.8549,470.3228,443.5245,474.6279,440.252,465.3386" style="stroke: #A80036; stroke-width: 1.0;"/><path d="M297.644,780.7299 C329.546,779.13 368.973,771.3595 393,745.6406 C429.436,706.6386 439.322,550.5396 442.003,470.4996 " fill="none" style="stroke: #A80036; stroke-width: 1.0;"/><polygon fill="#A80036" points="442.17,465.3396,437.8816,474.2058,442.0086,470.337,445.8774,474.464,442.17,465.3396" style="stroke: #A80036; stroke-width: 1.0;"/><path d="M581.243,491.3606 C554.833,486.5496 521.92,478.3316 495,464.6406 C483.152,458.6146 471.668,449.2986 462.701,440.9696 " fill="none" style="stroke: #A80036; stroke-width: 1.0;"/><polygon fill="#A80036" points="459.018,437.4726,462.7901,446.5705,462.6438,440.9155,468.2987,440.7693,459.018,437.4726" style="stroke: #A80036; stroke-width: 1.0;"/><path d="M298.088,458.5796 C326.183,451.9446 361.538,443.4876 393,435.6406 C403.133,433.1136 414.392,430.1956 423.657,427.7656 " fill="none" style="stroke: #A80036; stroke-width: 1.0;"/><polygon fill="#A80036" points="428.578,426.4716,418.8567,424.8916,423.7423,427.743,420.891,432.6287,428.578,426.4716" style="stroke: #A80036; stroke-width: 1.0;"/><path d="M335.964,533.4056 C356.107,527.2226 376.41,518.3556 393,505.6406 C407.278,494.6976 418.353,478.4146 426.408,463.1616 " fill="none" style="stroke: #A80036; stroke-width: 1.0;"/><polygon fill="#A80036" points="428.811,458.4676,421.1487,464.6555,426.5322,462.9181,428.2695,468.3016,428.811,458.4676" style="stroke: #A80036; stroke-width: 1.0;"/><path d="M345.725,618.6826 C363.219,612.0766 379.971,602.7626 393,589.6406 C424.3,558.1176 436.145,507.8416 440.554,470.6816 " fill="none" style="stroke: #A80036; stroke-width: 1.0;"/><polygon fill="#A80036" points="441.152,465.2976,436.1812,473.8001,440.5991,470.267,444.1322,474.6848,441.152,465.2976" style="stroke: #A80036; stroke-width: 1.0;"/><path d="M451.02,375.0166 C458.695,321.7136 473.588,239.8846 495,217.6406 C508.788,203.3176 527.553,194.2796 546.657,188.6086 " fill="none" style="stroke: #A80036; stroke-width: 1.0;"/><polygon fill="#A80036" points="450.3,380.0836,455.5275,371.7366,451.0041,375.1334,447.6073,370.61,450.3,380.0836" style="stroke: #A80036; stroke-width: 1.0;"/><path d="M453.772,374.7776 C460.827,348.9646 473.292,318.4346 495,298.6406 C508.588,286.2506 525.874,277.6926 543.465,271.7816 " fill="none" style="stroke: #A80036; stroke-width: 1.0;"/><polygon fill="#A80036" points="452.432,379.8726,458.5891,372.1856,453.7034,375.037,450.852,370.1513,452.432,379.8726" style="stroke: #A80036; stroke-width: 1.0;"/><path d="M462.853,404.5996 C471.855,396.3376 483.324,386.9936 495,380.6406 C513.954,370.3276 535.865,362.2296 556.385,356.0536 " fill="none" style="stroke: #A80036; stroke-width: 1.0;"/><polygon fill="#A80036" points="459.152,408.0626,468.4571,404.8355,462.8034,404.6469,462.992,398.9932,459.152,408.0626" style="stroke: #A80036; stroke-width: 1.0;"/><path d="M464.241,422.6406 C477.986,422.6406 497.705,422.6406 518.739,422.6406 " fill="none" style="stroke: #A80036; stroke-width: 1.0;"/><polygon fill="#A80036" points="459.094,422.6406,468.094,426.6406,464.094,422.6406,468.094,418.6406,459.094,422.6406" style="stroke: #A80036; stroke-width: 1.0;"/><path d="M447.493,374.8846 C452.167,303.8776 464.667,175.2106 495,141.6406 C508.248,126.9796 526.706,117.8116 545.677,112.1226 " fill="none" style="stroke: #A80036; stroke-width: 1.0;"/><polygon fill="#A80036" points="447.169,379.8956,451.7417,371.1727,447.4918,374.9061,443.7584,370.6561,447.169,379.8956" style="stroke: #A80036; stroke-width: 1.0;"/></g></svg>